<svg width="20" height="21" viewBox="0 0 20 21" fill="none" xmlns="http://www.w3.org/2000/svg">
<mask id="mask0" mask-type="alpha" maskUnits="userSpaceOnUse" x="0" y="0" width="20" height="21">
<path fill-rule="evenodd" clip-rule="evenodd" d="M0 0.42041H19.6096V20.9557H0V0.42041Z" fill="white"/>
</mask>
<g mask="url(#mask0)">
<path fill-rule="evenodd" clip-rule="evenodd" d="M1.50341 19.4523C0.533659 18.4845 0 17.1904 0 15.8108C0 14.4313 0.533659 13.1396 1.50341 12.1699L12.1551 1.51816C13.6776 -0.00476837 16.0463 0.0640121 17.662 1.68011C19.278 3.29572 19.3483 5.66255 17.8239 7.18694L7.81805 17.1943C6.87902 18.1338 5.34878 18.1338 4.40732 17.1943C3.4678 16.2533 3.4678 14.723 4.40732 13.7835L11.1854 7.00596C11.4141 6.77718 11.7854 6.77718 12.0141 7.00596C12.2429 7.23426 12.2429 7.60401 12.0141 7.83279L5.2361 14.6123C4.75219 15.0947 4.75219 15.8816 5.2361 16.3655C5.72049 16.8494 6.50732 16.8494 6.98927 16.3655L16.9971 6.35962C18.0488 5.30791 17.9785 3.6523 16.8351 2.50694C15.6898 1.36352 14.0341 1.29523 12.982 2.34694L2.33024 12.9986C1.58341 13.7455 1.16976 14.7465 1.16976 15.8108C1.16976 16.8782 1.58341 17.8767 2.33024 18.6255C3.07902 19.3743 4.07756 19.786 5.14488 19.786C6.21171 19.786 7.21024 19.3743 7.95902 18.6255L18.6107 7.97377C18.8395 7.74499 19.2093 7.74499 19.438 7.97377C19.6668 8.20255 19.6668 8.5723 19.438 8.8006L8.78634 19.4523C7.81805 20.4221 6.52439 20.9557 5.14488 20.9557C3.76537 20.9557 2.47122 20.4221 1.50341 19.4523Z" fill="#9E9E9E"/>
</g>
</svg>
